# xmcd
#
# Track frame offsets: 
#        150
#        15782
#        38971
#        61249
#        74771
#        93563
#        110274
#        124795
#        141357
#        163080
#
# Disc length: 2347 seconds
#
# Revision: 1
# Processed by: cddbd v1.5.2PL0 Copyright (c) Steve Scherf et al.
# Submitted via: ExactAudioCopy v0.95a3
#
DISCID=8809290a
DTITLE=Boyle, Maeve O' - All My Sins
DYEAR=1900
DGENRE=
TTITLE0=Old Greenwich Time
TTITLE1=The Place You Became
TTITLE2=Facing Home
TTITLE3=Taxi
TTITLE4=Swimming Upstream
TTITLE5=Butterfly
TTITLE6=Carnival Attraction
TTITLE7=All My Sins
TTITLE8=Romeo
TTITLE9=Pray It Never Happens
EXTD=
EXTT0=
EXTT1=
EXTT2=
EXTT3=
EXTT4=
EXTT5=
EXTT6=
EXTT7=
EXTT8=
EXTT9=
PLAYORDER=
